<mxfile host="app.diagrams.net" agent="Mozilla/5.0 (Macintosh; Intel Mac OS X 10_15_7) AppleWebKit/537.36 (KHTML, like Gecko) Chrome/135.0.0.0 Safari/537.36" version="26.1.3">
  <diagram name="第 1 页" id="9Fog6PMzjCSzRfVmr_Oy">
    <mxGraphModel dx="1264" dy="588" grid="1" gridSize="10" guides="1" tooltips="1" connect="1" arrows="1" fold="1" page="1" pageScale="1" pageWidth="1600" pageHeight="1200" math="0" shadow="0">
      <root>
        <mxCell id="0" />
        <mxCell id="1" parent="0" />
        <mxCell id="_DpiRx70NHCl_bEKjOj2-1" value="希望学-续报中心" style="rounded=0;whiteSpace=wrap;html=1;fillColor=#d5e8d4;strokeColor=#82b366;" parent="1" vertex="1">
          <mxGeometry x="641" y="360" width="119" height="60" as="geometry" />
        </mxCell>
        <mxCell id="j4IGC4dSVH3_SFCh3_FS-4" value="优课-续报中心" style="rounded=0;whiteSpace=wrap;html=1;fillColor=#d5e8d4;strokeColor=#82b366;" vertex="1" parent="1">
          <mxGeometry x="641" y="460" width="119" height="60" as="geometry" />
        </mxCell>
        <mxCell id="j4IGC4dSVH3_SFCh3_FS-5" value="希望学-入口年级" style="rounded=0;whiteSpace=wrap;html=1;fillColor=#d5e8d4;strokeColor=#82b366;" vertex="1" parent="1">
          <mxGeometry x="641" y="560" width="119" height="60" as="geometry" />
        </mxCell>
        <mxCell id="j4IGC4dSVH3_SFCh3_FS-6" value="优课-入口年级" style="rounded=0;whiteSpace=wrap;html=1;fillColor=#d5e8d4;strokeColor=#82b366;" vertex="1" parent="1">
          <mxGeometry x="641" y="680" width="119" height="60" as="geometry" />
        </mxCell>
      </root>
    </mxGraphModel>
  </diagram>
</mxfile>
